<svg xmlns="http://www.w3.org/2000/svg" width="281" height="35" viewBox="0 0 281 35"><rect class="svg__rect" x="0" y="0" width="150.71" height="35" fill="#A183CE"/><rect class="svg__rect" x="148.71" y="0" width="132.29" height="35" fill="#7952B3"/><path class="svg__text" d="M16.67 22L14.22 22L14.22 13.47L16.74 13.47Q17.87 13.47 18.74 13.97Q19.62 14.48 20.10 15.40Q20.58 16.33 20.58 17.52L20.58 17.52L20.58 17.95Q20.58 19.16 20.10 20.08Q19.61 21.00 18.72 21.50Q17.83 22 16.67 22L16.67 22ZM15.70 14.66L15.70 20.82L16.67 20.82Q17.83 20.82 18.46 20.09Q19.08 19.36 19.09 17.99L19.09 17.99L19.09 17.52Q19.09 16.13 18.49 15.40Q17.89 14.66 16.74 14.66L16.74 14.66L15.70 14.66ZM30.62 22L25.05 22L25.05 13.47L30.58 13.47L30.58 14.66L26.53 14.66L26.53 17.02L30.03 17.02L30.03 18.19L26.53 18.19L26.53 20.82L30.62 20.82L30.62 22ZM34.39 19.42L34.39 19.42L35.87 19.42Q35.87 20.15 36.35 20.55Q36.83 20.95 37.73 20.95L37.73 20.95Q38.50 20.95 38.89 20.63Q39.28 20.32 39.28 19.80L39.28 19.80Q39.28 19.24 38.88 18.94Q38.49 18.63 37.46 18.32Q36.42 18.01 35.81 17.63L35.81 17.63Q34.65 16.90 34.65 15.72L34.65 15.72Q34.65 14.69 35.49 14.02Q36.33 13.35 37.67 13.35L37.67 13.35Q38.56 13.35 39.26 13.68Q39.96 14.01 40.36 14.61Q40.75 15.22 40.75 15.96L40.75 15.96L39.28 15.96Q39.28 15.29 38.86 14.91Q38.44 14.54 37.66 14.54L37.66 14.54Q36.93 14.54 36.53 14.85Q36.13 15.16 36.13 15.71L36.13 15.71Q36.13 16.18 36.56 16.50Q37.00 16.81 37.99 17.10Q38.99 17.40 39.59 17.78Q40.20 18.16 40.48 18.65Q40.76 19.13 40.76 19.79L40.76 19.79Q40.76 20.86 39.94 21.49Q39.13 22.12 37.73 22.12L37.73 22.12Q36.80 22.12 36.02 21.77Q35.25 21.43 34.82 20.83Q34.39 20.22 34.39 19.42ZM46.61 22L45.14 22L45.14 13.47L46.61 13.47L46.61 22ZM51.18 18.13L51.18 18.13L51.18 17.46Q51.18 15.53 52.10 14.44Q53.03 13.35 54.69 13.35L54.69 13.35Q56.11 13.35 56.95 14.05Q57.79 14.76 57.96 16.08L57.96 16.08L56.50 16.08Q56.26 14.54 54.72 14.54L54.72 14.54Q53.72 14.54 53.20 15.26Q52.68 15.98 52.67 17.37L52.67 17.37L52.67 18.02Q52.67 19.40 53.25 20.17Q53.83 20.93 54.87 20.93L54.87 20.93Q56.01 20.93 56.49 20.42L56.49 20.42L56.49 18.75L54.73 18.75L54.73 17.62L57.96 17.62L57.96 20.89Q57.50 21.50 56.68 21.81Q55.86 22.12 54.82 22.12L54.82 22.12Q53.74 22.12 52.92 21.63Q52.09 21.14 51.64 20.24Q51.20 19.33 51.18 18.13ZM64.06 22L62.58 22L62.58 13.47L64.06 13.47L67.88 19.54L67.88 13.47L69.35 13.47L69.35 22L67.87 22L64.06 15.95L64.06 22ZM79.67 22L74.09 22L74.09 13.47L79.63 13.47L79.63 14.66L75.57 14.66L75.57 17.02L79.07 17.02L79.07 18.19L75.57 18.19L75.57 20.82L79.67 20.82L79.67 22ZM86.32 22L83.86 22L83.86 13.47L86.38 13.47Q87.51 13.47 88.39 13.97Q89.26 14.48 89.74 15.40Q90.22 16.33 90.22 17.52L90.22 17.52L90.22 17.95Q90.22 19.16 89.74 20.08Q89.26 21.00 88.36 21.50Q87.47 22 86.32 22L86.32 22ZM85.34 14.66L85.34 20.82L86.31 20.82Q87.48 20.82 88.10 20.09Q88.72 19.36 88.74 17.99L88.74 17.99L88.74 17.52Q88.74 16.13 88.13 15.40Q87.53 14.66 86.38 14.66L86.38 14.66L85.34 14.66ZM102.05 22L100.08 13.47L101.55 13.47L102.88 19.88L104.50 13.47L105.75 13.47L107.36 19.89L108.67 13.47L110.14 13.47L108.17 22L106.75 22L105.13 15.77L103.47 22L102.05 22ZM115.78 22L114.30 22L114.30 13.47L115.78 13.47L115.78 22ZM122.27 14.66L119.63 14.66L119.63 13.47L126.40 13.47L126.40 14.66L123.74 14.66L123.74 22L122.27 22L122.27 14.66ZM131.64 22L130.16 22L130.16 13.47L131.64 13.47L131.64 17.02L135.45 17.02L135.45 13.47L136.93 13.47L136.93 22L135.45 22L135.45 18.21L131.64 18.21L131.64 22Z" fill="#FFFFFF"/><path class="svg__text" d="M167.44 22L162.90 22L162.90 13.60L167.20 13.60Q168.80 13.60 169.64 14.19Q170.49 14.79 170.49 15.79L170.49 15.79Q170.49 16.39 170.19 16.87Q169.89 17.34 169.35 17.62L169.35 17.62Q170.08 17.87 170.48 18.41Q170.89 18.94 170.89 19.70L170.89 19.70Q170.89 20.80 170.00 21.40Q169.11 22 167.44 22L167.44 22ZM165.25 18.58L165.25 20.28L167.25 20.28Q168.49 20.28 168.49 19.43L168.49 19.43Q168.49 18.58 167.25 18.58L167.25 18.58L165.25 18.58ZM165.25 15.31L165.25 16.94L166.88 16.94Q168.08 16.94 168.08 16.12L168.08 16.12Q168.08 15.31 166.88 15.31L166.88 15.31L165.25 15.31ZM175.18 17.80L175.18 17.80Q175.18 16.55 175.78 15.55Q176.39 14.56 177.45 14.00Q178.51 13.43 179.84 13.43L179.84 13.43Q181.17 13.43 182.24 14.00Q183.30 14.56 183.91 15.55Q184.51 16.55 184.51 17.80L184.51 17.80Q184.51 19.05 183.91 20.04Q183.30 21.04 182.24 21.60Q181.18 22.17 179.84 22.17L179.84 22.17Q178.51 22.17 177.45 21.60Q176.39 21.04 175.78 20.04Q175.18 19.05 175.18 17.80ZM177.58 17.80L177.58 17.80Q177.58 18.51 177.88 19.05Q178.18 19.60 178.69 19.90Q179.21 20.20 179.84 20.20L179.84 20.20Q180.48 20.20 181.00 19.90Q181.51 19.60 181.81 19.05Q182.11 18.51 182.11 17.80L182.11 17.80Q182.11 17.09 181.81 16.54Q181.51 16 181.00 15.70Q180.48 15.40 179.84 15.40L179.84 15.40Q179.20 15.40 178.69 15.70Q178.18 16 177.88 16.54Q177.58 17.09 177.58 17.80ZM188.81 17.80L188.81 17.80Q188.81 16.55 189.42 15.55Q190.02 14.56 191.08 14.00Q192.15 13.43 193.48 13.43L193.48 13.43Q194.81 13.43 195.87 14.00Q196.94 14.56 197.54 15.55Q198.15 16.55 198.15 17.80L198.15 17.80Q198.15 19.05 197.54 20.04Q196.94 21.04 195.87 21.60Q194.81 22.17 193.48 22.17L193.48 22.17Q192.15 22.17 191.08 21.60Q190.02 21.04 189.42 20.04Q188.81 19.05 188.81 17.80ZM191.21 17.80L191.21 17.80Q191.21 18.51 191.51 19.05Q191.81 19.60 192.33 19.90Q192.85 20.20 193.48 20.20L193.48 20.20Q194.12 20.20 194.63 19.90Q195.15 19.60 195.45 19.05Q195.75 18.51 195.75 17.80L195.75 17.80Q195.75 17.09 195.45 16.54Q195.15 16 194.63 15.70Q194.12 15.40 193.48 15.40L193.48 15.40Q192.84 15.40 192.33 15.70Q191.81 16 191.51 16.54Q191.21 17.09 191.21 17.80ZM204.67 15.48L202.09 15.48L202.09 13.60L209.61 13.60L209.61 15.48L207.04 15.48L207.04 22L204.67 22L204.67 15.48ZM213.39 21.24L213.39 21.24L214.17 19.49Q214.74 19.86 215.48 20.09Q216.22 20.32 216.94 20.32L216.94 20.32Q218.31 20.32 218.32 19.64L218.32 19.64Q218.32 19.28 217.93 19.11Q217.54 18.93 216.67 18.74L216.67 18.74Q215.72 18.53 215.08 18.30Q214.45 18.06 213.99 17.55Q213.54 17.03 213.54 16.16L213.54 16.16Q213.54 15.39 213.96 14.77Q214.38 14.15 215.21 13.79Q216.05 13.43 217.26 13.43L217.26 13.43Q218.08 13.43 218.89 13.62Q219.69 13.80 220.31 14.17L220.31 14.17L219.58 15.93Q218.37 15.28 217.24 15.28L217.24 15.28Q216.53 15.28 216.21 15.49Q215.89 15.70 215.89 16.04L215.89 16.04Q215.89 16.37 216.27 16.54Q216.66 16.71 217.51 16.89L217.51 16.89Q218.47 17.10 219.10 17.33Q219.73 17.56 220.19 18.07Q220.65 18.58 220.65 19.46L220.65 19.46Q220.65 20.21 220.23 20.83Q219.82 21.44 218.98 21.80Q218.13 22.17 216.93 22.17L216.93 22.17Q215.91 22.17 214.95 21.92Q213.99 21.67 213.39 21.24ZM227.02 15.48L224.44 15.48L224.44 13.60L231.96 13.60L231.96 15.48L229.40 15.48L229.40 22L227.02 22L227.02 15.48ZM238.71 22L236.33 22L236.33 13.60L240.18 13.60Q241.32 13.60 242.16 13.98Q243.00 14.35 243.45 15.06Q243.91 15.76 243.91 16.71L243.91 16.71Q243.91 17.62 243.48 18.30Q243.05 18.98 242.26 19.36L242.26 19.36L244.07 22L241.53 22L240.01 19.77L238.71 19.77L238.71 22ZM238.71 15.47L238.71 17.93L240.03 17.93Q240.76 17.93 241.14 17.61Q241.51 17.29 241.51 16.71L241.51 16.71Q241.51 16.12 241.14 15.79Q240.76 15.47 240.03 15.47L240.03 15.47L238.71 15.47ZM250.11 22L247.69 22L251.40 13.60L253.74 13.60L257.46 22L254.99 22L254.33 20.37L250.78 20.37L250.11 22ZM252.55 15.93L251.47 18.61L253.63 18.61L252.55 15.93ZM263.99 22L261.61 22L261.61 13.60L265.45 13.60Q266.59 13.60 267.43 13.98Q268.27 14.35 268.73 15.06Q269.19 15.76 269.19 16.71L269.19 16.71Q269.19 17.66 268.73 18.35Q268.27 19.05 267.43 19.42Q266.59 19.80 265.45 19.80L265.45 19.80L263.99 19.80L263.99 22ZM263.99 15.47L263.99 17.93L265.31 17.93Q266.04 17.93 266.41 17.61Q266.78 17.29 266.78 16.71L266.78 16.71Q266.78 16.12 266.41 15.80Q266.04 15.47 265.31 15.47L265.31 15.47L263.99 15.47Z" fill="#FFFFFF" x="161.71"/></svg>